<svg fill="#d2d2d2" xmlns="http://www.w3.org/2000/svg" xmlns:xlink="http://www.w3.org/1999/xlink" version="1.1" x="0px" y="0px" viewBox="0 0 1000 1250" enable-background="new 0 0 1000 1000" xml:space="preserve"><path d="M500,192.017c-21.291,0-38.622,17.276-38.715,38.545c0.266,5.062,6.415,82.669,10.518,134.033  c0.021,0.256,0.031,0.514,0.031,0.771c0,15.531,12.636,28.167,28.167,28.167s28.167-12.636,28.167-28.167  c0-0.257,0.011-0.515,0.031-0.771c4.103-51.364,10.252-128.971,10.518-134.033C538.622,209.293,521.291,192.017,500,192.017z"/><path d="M528.167,634.634c0-15.531-12.636-28.167-28.167-28.167s-28.167,12.636-28.167,28.167c0,0.257-0.011,0.515-0.031,0.771  c-4.103,51.365-10.252,128.972-10.518,134.033c0.093,21.27,17.425,38.546,38.715,38.546s38.622-17.276,38.715-38.546  c-0.266-5.062-6.415-82.668-10.518-134.033C528.178,635.148,528.167,634.891,528.167,634.634z"/><path d="M397.487,408.29c-0.223-0.129-0.44-0.267-0.652-0.412c-42.431-29.235-106.565-73.364-110.817-76.125  c-5.85-3.344-12.473-5.11-19.166-5.11c-13.813,0-26.677,7.421-33.573,19.366c-5.171,8.956-6.544,19.389-3.868,29.378  c2.662,9.934,9.013,18.246,17.892,23.423c4.517,2.301,74.801,35.779,121.335,57.908c0.232,0.11,0.46,0.23,0.683,0.359  c4.283,2.473,9.141,3.78,14.049,3.78c10.05,0,19.41-5.398,24.428-14.089c3.762-6.516,4.761-14.106,2.814-21.374  C408.664,418.126,404.003,412.052,397.487,408.29z"/><path d="M752.698,601.191c-4.517-2.302-74.801-35.78-121.335-57.909c-0.232-0.11-0.46-0.229-0.683-0.358  c-4.283-2.473-9.142-3.78-14.049-3.78c-10.05,0-19.411,5.399-24.428,14.09c-3.763,6.516-4.762,14.106-2.814,21.374  c1.947,7.267,6.608,13.341,13.124,17.103c0.223,0.129,0.44,0.267,0.652,0.412c42.431,29.235,106.566,73.364,110.817,76.125  c5.851,3.344,12.474,5.11,19.165,5.11c13.813,0,26.677-7.421,33.573-19.365c5.171-8.956,6.544-19.39,3.868-29.379  C767.928,614.68,761.577,606.367,752.698,601.191z"/><path d="M383.369,539.145c-4.907,0-9.765,1.307-14.048,3.779c-0.223,0.129-0.45,0.248-0.683,0.359  c-46.537,22.129-116.826,55.61-121.335,57.908c-8.879,5.177-15.229,13.488-17.892,23.422c-2.676,9.989-1.303,20.244,3.868,29.2  C240.175,665.758,253.04,673,266.853,673c0,0,0.001,0,0.001,0c6.691,0,13.313-1.588,19.164-4.932  c4.251-2.761,68.386-46.801,110.817-76.035c0.212-0.146,0.43-0.239,0.652-0.368c6.516-3.762,11.177-9.813,13.124-17.08  c1.947-7.268,0.948-14.847-2.814-21.362C402.779,544.531,393.419,539.145,383.369,539.145z"/><path d="M616.632,460.856c4.907,0,9.765-1.308,14.049-3.78c0.223-0.129,0.45-0.249,0.683-0.359  c46.537-22.13,116.826-55.611,121.335-57.909c8.879-5.177,15.229-13.488,17.892-23.422c2.676-9.989,1.303-20.422-3.868-29.378  c-6.896-11.945-19.761-19.366-33.573-19.366c-6.692,0-13.315,1.767-19.166,5.11c-4.251,2.761-68.386,46.89-110.816,76.125  c-0.212,0.146-0.43,0.283-0.652,0.412c-6.516,3.762-11.177,9.836-13.124,17.103s-0.948,14.858,2.814,21.374  C597.221,455.457,606.582,460.856,616.632,460.856z"/><text x="0" y="1015" fill="#000000" font-size="5px" font-weight="bold" font-family="'Helvetica Neue', Helvetica, Arial-Unicode, Arial, Sans-serif">Created by rasendria</text><text x="0" y="1020" fill="#000000" font-size="5px" font-weight="bold" font-family="'Helvetica Neue', Helvetica, Arial-Unicode, Arial, Sans-serif">from the Noun Project</text></svg>