<svg fill="#d2d2d2" xmlns="http://www.w3.org/2000/svg" version="1.1" viewBox="-5.0 -10.0 110.0 135.0">
 <path d="m22.102 29.852c-2.8164-0.003906-5.0977-2.2852-5.1016-5.1016v-7c0-2.8164 2.2852-5.1016 5.1016-5.1016 2.8164 0 5.0977 2.2852 5.0977 5.1016v7c-0.003907 2.8164-2.2852 5.0977-5.0977 5.1016zm0-15c-1.6016 0-2.9023 1.2969-2.9023 2.8984v7c0 1.6016 1.3008 2.8984 2.9023 2.8984 1.6016 0 2.8984-1.2969 2.8984-2.8984v-7c0-1.6016-1.2969-2.8984-2.8984-2.8984z"/>
 <path d="m40.699 29.852c-2.8164-0.003906-5.0977-2.2852-5.0977-5.1016v-7c0-2.8164 2.2812-5.1016 5.0977-5.1016 2.8164 0 5.1016 2.2852 5.1016 5.1016v7c-0.003906 2.8164-2.2852 5.0977-5.1016 5.1016zm0-15c-1.6016 0-2.8984 1.2969-2.8984 2.8984v7c0 1.6016 1.2969 2.8984 2.8984 2.8984 1.6016 0 2.9023-1.2969 2.9023-2.8984v-7c0-1.6016-1.3008-2.8984-2.9023-2.8984z"/>
 <path d="m59.301 29.852c-2.8164-0.003906-5.0977-2.2852-5.1016-5.1016v-7c0-2.8164 2.2852-5.1016 5.1016-5.1016 2.8164 0 5.0977 2.2852 5.0977 5.1016v7c0 2.8164-2.2812 5.0977-5.0977 5.1016zm0-15c-1.6016 0-2.9023 1.2969-2.9023 2.8984v7c0 1.6016 1.3008 2.8984 2.9023 2.8984 1.6016 0 2.8984-1.2969 2.8984-2.8984v-7c0-1.6016-1.2969-2.8984-2.8984-2.8984z"/>
 <path d="m77.898 29.852c-2.8125-0.003906-5.0938-2.2852-5.0977-5.1016v-7c0-2.8164 2.2812-5.1016 5.0977-5.1016 2.8164 0 5.1016 2.2852 5.1016 5.1016v7c-0.003906 2.8164-2.2852 5.0977-5.1016 5.1016zm0-15c-1.6016 0-2.8984 1.2969-2.8984 2.8984v7c0 1.6016 1.2969 2.8984 2.8984 2.8984 1.6016 0 2.9023-1.2969 2.9023-2.8984v-7c0-1.6016-1.3008-2.8984-2.9023-2.8984z"/>
 <path d="m92.5 87.352h-85c-0.60938 0-1.1016-0.49219-1.1016-1.1016v-50c0-0.60938 0.49219-1.1016 1.1016-1.1016h85c0.60938 0 1.1016 0.49219 1.1016 1.1016v50c0 0.60938-0.49219 1.1016-1.1016 1.1016zm-83.898-2.1992 82.797-0.003906v-47.801l-82.797 0.003906z"/>
 <path d="m36.699 22.352h-10.598c-0.60937 0-1.1016-0.49219-1.1016-1.1016s0.49219-1.1016 1.1016-1.1016h10.598c0.60938 0 1.1016 0.49219 1.1016 1.1016s-0.49219 1.1016-1.1016 1.1016z"/>
 <path d="m73.898 22.352h-10.598c-0.60938 0-1.1016-0.49219-1.1016-1.1016s0.49219-1.1016 1.1016-1.1016h10.598c0.60937 0 1.1016 0.49219 1.1016 1.1016s-0.49219 1.1016-1.1016 1.1016z"/>
 <path d="m92.5 37.352h-85c-0.60938 0-1.1016-0.49219-1.1016-1.1016v-15c0-0.60938 0.49219-1.1016 1.1016-1.1016h10.602c0.60547 0 1.0977 0.49219 1.0977 1.1016s-0.49219 1.1016-1.0977 1.1016h-9.5v12.801l82.797-0.003906v-12.801l-9.5 0.003906c-0.60547 0-1.0977-0.49219-1.0977-1.1016s0.49219-1.1016 1.0977-1.1016h10.602c0.60938 0 1.1016 0.49219 1.1016 1.1016v15c0 0.60938-0.49219 1.1016-1.1016 1.1016z"/>
 <path d="m55.301 22.352h-10.602c-0.60547 0-1.0977-0.49219-1.0977-1.1016s0.49219-1.1016 1.0977-1.1016h10.602c0.60547 0 1.0977 0.49219 1.0977 1.1016s-0.49219 1.1016-1.0977 1.1016z"/>
 <path d="m23 51.852h-8c-0.60938 0-1.1016-0.49219-1.1016-1.1016v-8c0-0.60938 0.49219-1.1016 1.1016-1.1016h8c0.60938 0 1.1016 0.49219 1.1016 1.1016v8c0 0.60938-0.49219 1.1016-1.1016 1.1016zm-6.8984-2.1992h5.8008v-5.8008h-5.8008z"/>
 <path d="m38.5 51.852h-8c-0.60938 0-1.1016-0.49219-1.1016-1.1016v-8c0-0.60938 0.49219-1.1016 1.1016-1.1016h8c0.60938 0 1.1016 0.49219 1.1016 1.1016v8c0 0.60938-0.49219 1.1016-1.1016 1.1016zm-6.8984-2.1992h5.8008v-5.8008h-5.8008z"/>
 <path d="m54 51.852h-8c-0.60938 0-1.1016-0.49219-1.1016-1.1016v-8c0-0.60938 0.49219-1.1016 1.1016-1.1016h8c0.60938 0 1.1016 0.49219 1.1016 1.1016v8c0 0.60938-0.49219 1.1016-1.1016 1.1016zm-6.8984-2.1992h5.8008v-5.8008h-5.8008z"/>
 <path d="m69.5 51.852h-8c-0.60938 0-1.1016-0.49219-1.1016-1.1016v-8c0-0.60938 0.49219-1.1016 1.1016-1.1016h8c0.60938 0 1.1016 0.49219 1.1016 1.1016v8c0 0.60938-0.49219 1.1016-1.1016 1.1016zm-6.8984-2.1992h5.8008v-5.8008h-5.8008z"/>
 <path d="m85 51.852h-8c-0.60938 0-1.1016-0.49219-1.1016-1.1016v-8c0-0.60938 0.49219-1.1016 1.1016-1.1016h8c0.60938 0 1.1016 0.49219 1.1016 1.1016v8c0 0.60938-0.49219 1.1016-1.1016 1.1016zm-6.8984-2.1992h5.8008v-5.8008h-5.8008z"/>
 <path d="m23 66.352h-8c-0.60938 0-1.1016-0.49219-1.1016-1.1016v-8c0-0.60938 0.49219-1.1016 1.1016-1.1016h8c0.60938 0 1.1016 0.49219 1.1016 1.1016v8c0 0.60938-0.49219 1.1016-1.1016 1.1016zm-6.8984-2.1992h5.8008v-5.8008h-5.8008z"/>
 <path d="m38.5 66.352h-8c-0.60938 0-1.1016-0.49219-1.1016-1.1016v-8c0-0.60938 0.49219-1.1016 1.1016-1.1016h8c0.60938 0 1.1016 0.49219 1.1016 1.1016v8c0 0.60938-0.49219 1.1016-1.1016 1.1016zm-6.8984-2.1992h5.8008v-5.8008h-5.8008z"/>
 <path d="m54 66.352h-8c-0.60938 0-1.1016-0.49219-1.1016-1.1016v-8c0-0.60938 0.49219-1.1016 1.1016-1.1016h8c0.60938 0 1.1016 0.49219 1.1016 1.1016v8c0 0.60938-0.49219 1.1016-1.1016 1.1016zm-6.8984-2.1992h5.8008v-5.8008h-5.8008z"/>
 <path d="m69.5 66.352h-8c-0.60938 0-1.1016-0.49219-1.1016-1.1016v-8c0-0.60938 0.49219-1.1016 1.1016-1.1016h8c0.60938 0 1.1016 0.49219 1.1016 1.1016v8c0 0.60938-0.49219 1.1016-1.1016 1.1016zm-6.8984-2.1992h5.8008v-5.8008h-5.8008z"/>
 <path d="m85 66.352h-8c-0.60938 0-1.1016-0.49219-1.1016-1.1016v-8c0-0.60938 0.49219-1.1016 1.1016-1.1016h8c0.60938 0 1.1016 0.49219 1.1016 1.1016v8c0 0.60938-0.49219 1.1016-1.1016 1.1016zm-6.8984-2.1992h5.8008v-5.8008h-5.8008z"/>
 <path d="m23 80.852h-8c-0.60938 0-1.1016-0.49219-1.1016-1.1016v-8c0-0.60547 0.49219-1.0977 1.1016-1.0977h8c0.60938 0 1.1016 0.49219 1.1016 1.0977v8c0 0.60938-0.49219 1.1016-1.1016 1.1016zm-6.8984-2.1992h5.8008v-5.8008h-5.8008z"/>
 <path d="m38.5 80.852h-8c-0.60938 0-1.1016-0.49219-1.1016-1.1016v-8c0-0.60547 0.49219-1.0977 1.1016-1.0977h8c0.60938 0 1.1016 0.49219 1.1016 1.0977v8c0 0.60938-0.49219 1.1016-1.1016 1.1016zm-6.8984-2.1992h5.8008v-5.8008h-5.8008z"/>
 <path d="m54 80.852h-8c-0.60938 0-1.1016-0.49219-1.1016-1.1016v-8c0-0.60547 0.49219-1.0977 1.1016-1.0977h8c0.60938 0 1.1016 0.49219 1.1016 1.0977v8c0 0.60938-0.49219 1.1016-1.1016 1.1016zm-6.8984-2.1992h5.8008v-5.8008h-5.8008z"/>
 <path d="m69.5 80.852h-8c-0.60938 0-1.1016-0.49219-1.1016-1.1016v-8c0-0.60547 0.49219-1.0977 1.1016-1.0977h8c0.60938 0 1.1016 0.49219 1.1016 1.0977v8c0 0.60938-0.49219 1.1016-1.1016 1.1016zm-6.8984-2.1992h5.8008v-5.8008h-5.8008z"/>
 <path d="m85 80.852h-8c-0.60938 0-1.1016-0.49219-1.1016-1.1016v-8c0-0.60547 0.49219-1.0977 1.1016-1.0977h8c0.60938 0 1.1016 0.49219 1.1016 1.0977v8c0 0.60938-0.49219 1.1016-1.1016 1.1016zm-6.8984-2.1992h5.8008v-5.8008h-5.8008z"/>
</svg>