<svg fill="#d2d2d2" xmlns="http://www.w3.org/2000/svg" version="1.1" viewBox="-5.0 -10.0 110.0 135.0">
 <path d="m63 39h-26c-6.0703 0-11 4.9297-11 11s4.9297 11 11 11h26c6.0703 0 11-4.9297 11-11s-4.9297-11-11-11zm0 18h-26c-3.8594 0-7-3.1406-7-7s3.1406-7 7-7h26c3.8594 0 7 3.1406 7 7s-3.1406 7-7 7z"/>
 <path d="m72 23h-44c-1.1016 0-2 0.89844-2 2s0.89844 2 2 2h44c1.1016 0 2-0.89844 2-2s-0.89844-2-2-2z"/>
 <path d="m28 77h44c1.1016 0 2-0.89844 2-2s-0.89844-2-2-2h-44c-1.1016 0-2 0.89844-2 2s0.89844 2 2 2z"/>
<text x="0.0" y="117.5" font-size="5.0" font-weight="bold" font-family="Arbeit Regular, Helvetica, Arial-Unicode, Arial, Sans-serif" fill="#000000">Created by Gregor Cresnar</text><text x="0.0" y="122.5" font-size="5.0" font-weight="bold" font-family="Arbeit Regular, Helvetica, Arial-Unicode, Arial, Sans-serif" fill="#000000">from Noun Project</text></svg>