<svg fill="#d2d2d2" xmlns="http://www.w3.org/2000/svg" viewBox="0 0 32 40" x="0px" y="0px"><title>free</title><g><path d="M23.936,6.5H21.5V6a.5.5,0,0,0-1,0v.5h-9V6a.5.5,0,0,0-1,0v.5H8.064A2.567,2.567,0,0,0,5.5,9.064V23.936A2.567,2.567,0,0,0,8.064,26.5H23.936A2.567,2.567,0,0,0,26.5,23.936V9.064A2.567,2.567,0,0,0,23.936,6.5ZM20.5,7.5v2h-9v-2Zm5,16.436A1.566,1.566,0,0,1,23.936,25.5H8.064A1.566,1.566,0,0,1,6.5,23.936V9.064A1.566,1.566,0,0,1,8.064,7.5H10.5V10a.5.5,0,0,0,.5.5H21a.5.5,0,0,0,.5-.5V7.5h2.436A1.566,1.566,0,0,1,25.5,9.064Z"/><path d="M19,14.5H11a.5.5,0,0,0,0,1h8a.5.5,0,0,0,0-1Z"/><path d="M16,19.5H11a.5.5,0,0,0,0,1h5a.5.5,0,0,0,0-1Z"/></g><text x="0" y="47" fill="#000000" font-size="5px" font-weight="bold" font-family="'Helvetica Neue', Helvetica, Arial-Unicode, Arial, Sans-serif">Created by Letseate</text><text x="0" y="52" fill="#000000" font-size="5px" font-weight="bold" font-family="'Helvetica Neue', Helvetica, Arial-Unicode, Arial, Sans-serif">from the Noun Project</text></svg>